<svg xmlns="http://www.w3.org/2000/svg" viewBox="0 0 1000 250" width="1000" height="250" role="img" aria-label="IN and OUT">
  <title>IN and OUT</title>

  <!-- ============================================================
       GEOMETRY GRID
       cap-top y = 55, baseline y = 195  (letter height = 140)
       letter stroke = 40, round caps/joins
       figure occupies the gap between N and O, centered
       ============================================================ -->

  <g fill="none" stroke="#1e293b" stroke-width="40" stroke-linecap="round" stroke-linejoin="round">
    <!-- I -->
    <path d="M55 55 L55 195" />
    <!-- N -->
    <path d="M120 195 L120 55 L205 195 L205 55" />

    <!-- O -->
    <circle cx="610" cy="125" r="70" />
    <!-- U -->
    <path d="M745 55 L745 150 Q745 195 785 195 Q825 195 825 150 L825 55" />
    <!-- T -->
    <path d="M870 55 L965 55" />
    <path d="M917 55 L917 195" />
  </g>

  <!-- ============ RUNNING FIGURE (the "&") ============ -->
  <g transform="translate(35,0)">

    <!-- Speed lines trailing behind -->
    <g fill="none" stroke="#1e293b" stroke-width="15" stroke-linecap="round">
      <path d="M258 104 L300 104" />
      <path d="M246 132 L300 132" />
      <path d="M258 160 L300 160" />
    </g>

    <!-- Limbs + spine (thin enough to read as separate parts) -->
    <g fill="none" stroke="#1e293b" stroke-width="28" stroke-linecap="round" stroke-linejoin="round">
      <!-- Spine: leans forward into the run -->
      <path d="M370 92 C356 106 352 126 360 150" />
      <!-- Front arm: drives forward and down -->
      <path d="M368 98 L400 92 L416 116" />
      <!-- Back arm: swings up behind -->
      <path d="M360 104 L334 112 L320 98" />
      <!-- Front leg: knee high, lower leg forward -->
      <path d="M362 150 L398 144 L400 186" />
      <!-- Back leg: extended back, pushing off -->
      <path d="M356 152 L328 174 L312 198" />
    </g>

    <!-- Head + cap (solid) -->
    <g fill="#1e293b">
      <circle cx="378" cy="66" r="25" />
      <!-- Cap crown (flat-topped, tilted forward) -->
      <path d="M350 52 Q352 26 380 25 Q406 24 410 46 Q380 38 350 52 Z" />
      <!-- Cap brim, pointing forward -->
      <rect x="405" y="38" width="36" height="14" rx="7" transform="rotate(10 405 45)" />
    </g>

  </g>
</svg>
